<mxfile host="65bd71144e">
    <diagram id="iv_QZjI-SmRgKyfRSHU4" name="Page-1">
        <mxGraphModel dx="477" dy="534" grid="1" gridSize="10" guides="1" tooltips="1" connect="1" arrows="1" fold="1" page="1" pageScale="1" pageWidth="850" pageHeight="1100" math="0" shadow="0">
            <root>
                <mxCell id="0"/>
                <mxCell id="1" parent="0"/>
                <mxCell id="pbQqVZXAzCHVXFzSQ3Tk-3" value="" style="edgeStyle=orthogonalEdgeStyle;rounded=0;orthogonalLoop=1;jettySize=auto;html=1;" parent="1" source="pbQqVZXAzCHVXFzSQ3Tk-1" target="pbQqVZXAzCHVXFzSQ3Tk-2" edge="1">
                    <mxGeometry relative="1" as="geometry"/>
                </mxCell>
                <mxCell id="pbQqVZXAzCHVXFzSQ3Tk-1" value="Welcome Page&lt;br&gt;Boredom Slayer&lt;br&gt;Build a avatar()" style="rounded=0;whiteSpace=wrap;html=1;" parent="1" vertex="1">
                    <mxGeometry x="40" y="80" width="120" height="80" as="geometry"/>
                </mxCell>
                <mxCell id="pbQqVZXAzCHVXFzSQ3Tk-5" value="" style="edgeStyle=orthogonalEdgeStyle;rounded=0;orthogonalLoop=1;jettySize=auto;html=1;" parent="1" source="pbQqVZXAzCHVXFzSQ3Tk-2" target="pbQqVZXAzCHVXFzSQ3Tk-4" edge="1">
                    <mxGeometry relative="1" as="geometry"/>
                </mxCell>
                <mxCell id="pbQqVZXAzCHVXFzSQ3Tk-2" value="Avatar" style="rounded=0;whiteSpace=wrap;html=1;" parent="1" vertex="1">
                    <mxGeometry x="220" y="80" width="120" height="80" as="geometry"/>
                </mxCell>
                <mxCell id="pbQqVZXAzCHVXFzSQ3Tk-10" style="edgeStyle=orthogonalEdgeStyle;rounded=0;orthogonalLoop=1;jettySize=auto;html=1;exitX=0.5;exitY=1;exitDx=0;exitDy=0;" parent="1" source="pbQqVZXAzCHVXFzSQ3Tk-4" target="pbQqVZXAzCHVXFzSQ3Tk-8" edge="1">
                    <mxGeometry relative="1" as="geometry">
                        <Array as="points">
                            <mxPoint x="460" y="210"/>
                            <mxPoint x="740" y="210"/>
                        </Array>
                    </mxGeometry>
                </mxCell>
                <mxCell id="pbQqVZXAzCHVXFzSQ3Tk-11" style="edgeStyle=orthogonalEdgeStyle;rounded=0;orthogonalLoop=1;jettySize=auto;html=1;entryX=0.5;entryY=0;entryDx=0;entryDy=0;" parent="1" source="pbQqVZXAzCHVXFzSQ3Tk-4" target="pbQqVZXAzCHVXFzSQ3Tk-9" edge="1">
                    <mxGeometry relative="1" as="geometry">
                        <Array as="points">
                            <mxPoint x="460" y="210"/>
                            <mxPoint x="100" y="210"/>
                        </Array>
                    </mxGeometry>
                </mxCell>
                <mxCell id="pbQqVZXAzCHVXFzSQ3Tk-13" style="edgeStyle=orthogonalEdgeStyle;rounded=0;orthogonalLoop=1;jettySize=auto;html=1;exitX=0.5;exitY=1;exitDx=0;exitDy=0;entryX=0.5;entryY=0;entryDx=0;entryDy=0;" parent="1" source="pbQqVZXAzCHVXFzSQ3Tk-4" target="pbQqVZXAzCHVXFzSQ3Tk-7" edge="1">
                    <mxGeometry relative="1" as="geometry">
                        <mxPoint x="420" y="240" as="targetPoint"/>
                        <Array as="points">
                            <mxPoint x="460" y="210"/>
                            <mxPoint x="540" y="210"/>
                        </Array>
                    </mxGeometry>
                </mxCell>
                <mxCell id="pbQqVZXAzCHVXFzSQ3Tk-14" style="edgeStyle=orthogonalEdgeStyle;rounded=0;orthogonalLoop=1;jettySize=auto;html=1;exitX=0.5;exitY=1;exitDx=0;exitDy=0;entryX=0.5;entryY=0;entryDx=0;entryDy=0;" parent="1" source="pbQqVZXAzCHVXFzSQ3Tk-4" target="pbQqVZXAzCHVXFzSQ3Tk-6" edge="1">
                    <mxGeometry relative="1" as="geometry">
                        <Array as="points">
                            <mxPoint x="460" y="210"/>
                            <mxPoint x="300" y="210"/>
                        </Array>
                    </mxGeometry>
                </mxCell>
                <mxCell id="pbQqVZXAzCHVXFzSQ3Tk-4" value="Carousel&amp;nbsp;&lt;br&gt;Choose your destiny" style="rounded=0;whiteSpace=wrap;html=1;" parent="1" vertex="1">
                    <mxGeometry x="400" y="80" width="120" height="80" as="geometry"/>
                </mxCell>
                <mxCell id="pbQqVZXAzCHVXFzSQ3Tk-23" style="edgeStyle=orthogonalEdgeStyle;rounded=0;orthogonalLoop=1;jettySize=auto;html=1;entryX=0.5;entryY=0;entryDx=0;entryDy=0;" parent="1" source="pbQqVZXAzCHVXFzSQ3Tk-6" target="pbQqVZXAzCHVXFzSQ3Tk-19" edge="1">
                    <mxGeometry relative="1" as="geometry">
                        <Array as="points">
                            <mxPoint x="300" y="540"/>
                            <mxPoint x="426" y="540"/>
                        </Array>
                    </mxGeometry>
                </mxCell>
                <mxCell id="pbQqVZXAzCHVXFzSQ3Tk-6" value="&lt;span style=&quot;margin: 0px ; padding: 0px ; text-align: left ; font-size: 11pt ; line-height: 18.3458px ; font-family: &amp;#34;calibri&amp;#34; , &amp;#34;calibri_embeddedfont&amp;#34; , &amp;#34;calibri_msfontservice&amp;#34; , sans-serif&quot; class=&quot;TextRun SCXW124734519 BCX9&quot; lang=&quot;EN-US&quot;&gt;&lt;span style=&quot;margin: 0px ; padding: 0px&quot; class=&quot;NormalTextRun SCXW124734519 BCX9&quot;&gt;Tic tac toe&lt;br&gt;&lt;/span&gt;&lt;/span&gt;&lt;span style=&quot;margin: 0px ; padding: 0px ; text-align: left ; font-size: 11pt ; line-height: 18.3458px ; font-family: &amp;#34;calibri&amp;#34; , &amp;#34;calibri_embeddedfont&amp;#34; , &amp;#34;calibri_msfontservice&amp;#34; , sans-serif&quot; class=&quot;EOP SCXW124734519 BCX9&quot;&gt;-timer 5 sec&lt;br&gt;-Info button&lt;br&gt;-start game&lt;br&gt;-load clickable grid&amp;nbsp;&lt;br&gt;-computer option&lt;br&gt;-turn count&amp;nbsp;&lt;/span&gt;" style="rounded=0;whiteSpace=wrap;html=1;" parent="1" vertex="1">
                    <mxGeometry x="240" y="280" width="120" height="240" as="geometry"/>
                </mxCell>
                <mxCell id="pbQqVZXAzCHVXFzSQ3Tk-22" style="edgeStyle=orthogonalEdgeStyle;rounded=0;orthogonalLoop=1;jettySize=auto;html=1;entryX=0.5;entryY=0;entryDx=0;entryDy=0;" parent="1" source="pbQqVZXAzCHVXFzSQ3Tk-7" target="pbQqVZXAzCHVXFzSQ3Tk-19" edge="1">
                    <mxGeometry relative="1" as="geometry">
                        <Array as="points">
                            <mxPoint x="540" y="540"/>
                            <mxPoint x="426" y="540"/>
                        </Array>
                    </mxGeometry>
                </mxCell>
                <mxCell id="pbQqVZXAzCHVXFzSQ3Tk-7" value="&lt;span style=&quot;margin: 0px ; padding: 0px ; text-align: left ; font-size: 11pt ; line-height: 18.3458px ; font-family: &amp;#34;calibri&amp;#34; , &amp;#34;calibri_embeddedfont&amp;#34; , &amp;#34;calibri_msfontservice&amp;#34; , sans-serif&quot; class=&quot;TextRun SCXW154986230 BCX9&quot; lang=&quot;EN-US&quot;&gt;&lt;span style=&quot;margin: 0px ; padding: 0px&quot; class=&quot;NormalTextRun SCXW154986230 BCX9&quot;&gt;Mine sweeper&lt;br&gt;-info button (toggle or alert)&lt;br&gt;&lt;/span&gt;&lt;/span&gt;&lt;span style=&quot;margin: 0px ; padding: 0px ; text-align: left ; font-size: 11pt ; line-height: 18.3458px ; font-family: &amp;#34;calibri&amp;#34; , &amp;#34;calibri_embeddedfont&amp;#34; , &amp;#34;calibri_msfontservice&amp;#34; , sans-serif&quot; class=&quot;EOP SCXW154986230 BCX9&quot;&gt;-load random game&lt;br&gt;-click game-board&lt;br&gt;-reset&lt;br&gt;-timer&amp;nbsp;&lt;br&gt;-turn count&lt;br&gt;&lt;/span&gt;" style="rounded=0;whiteSpace=wrap;html=1;" parent="1" vertex="1">
                    <mxGeometry x="480" y="280" width="120" height="240" as="geometry"/>
                </mxCell>
                <mxCell id="pbQqVZXAzCHVXFzSQ3Tk-20" style="edgeStyle=orthogonalEdgeStyle;rounded=0;orthogonalLoop=1;jettySize=auto;html=1;" parent="1" source="pbQqVZXAzCHVXFzSQ3Tk-8" target="pbQqVZXAzCHVXFzSQ3Tk-19" edge="1">
                    <mxGeometry relative="1" as="geometry">
                        <Array as="points">
                            <mxPoint x="740" y="540"/>
                            <mxPoint x="426" y="540"/>
                        </Array>
                    </mxGeometry>
                </mxCell>
                <mxCell id="pbQqVZXAzCHVXFzSQ3Tk-8" value="&lt;span style=&quot;margin: 0px; padding: 0px; user-select: text; -webkit-user-drag: none; -webkit-tap-highlight-color: transparent; text-align: left; background-color: rgb(255, 255, 255); font-size: 11pt; line-height: 18.3458px; font-family: Calibri, Calibri_EmbeddedFont, Calibri_MSFontService, sans-serif; font-variant-ligatures: none !important;&quot; class=&quot;TextRun SCXW224233271 BCX9&quot; lang=&quot;EN-US&quot; data-contrast=&quot;auto&quot;&gt;&lt;span style=&quot;margin: 0px; padding: 0px; user-select: text; -webkit-user-drag: none; -webkit-tap-highlight-color: transparent;&quot; class=&quot;NormalTextRun SCXW224233271 BCX9&quot;&gt;Trivia&lt;/span&gt;&lt;/span&gt;&lt;span style=&quot;margin: 0px; padding: 0px; user-select: text; -webkit-user-drag: none; -webkit-tap-highlight-color: transparent; text-align: left; background-color: rgb(255, 255, 255); font-size: 11pt; line-height: 18.3458px; font-family: Calibri, Calibri_EmbeddedFont, Calibri_MSFontService, sans-serif;&quot; data-ccp-props=&quot;{&amp;quot;201341983&amp;quot;:0,&amp;quot;335559739&amp;quot;:160,&amp;quot;335559740&amp;quot;:259}&quot; class=&quot;EOP SCXW224233271 BCX9&quot;&gt;&amp;nbsp;&lt;br&gt;-info button&lt;br&gt;-select subject&lt;br&gt;-select rounds&lt;br&gt;-timer for rounds&lt;br&gt;-clickable buttons for each answer&lt;br&gt;&lt;/span&gt;" style="rounded=0;whiteSpace=wrap;html=1;" parent="1" vertex="1">
                    <mxGeometry x="680" y="280" width="120" height="240" as="geometry"/>
                </mxCell>
                <mxCell id="pbQqVZXAzCHVXFzSQ3Tk-25" style="edgeStyle=orthogonalEdgeStyle;rounded=0;orthogonalLoop=1;jettySize=auto;html=1;entryX=0.5;entryY=0;entryDx=0;entryDy=0;" parent="1" source="pbQqVZXAzCHVXFzSQ3Tk-9" target="pbQqVZXAzCHVXFzSQ3Tk-19" edge="1">
                    <mxGeometry relative="1" as="geometry">
                        <Array as="points">
                            <mxPoint x="100" y="540"/>
                            <mxPoint x="426" y="540"/>
                        </Array>
                    </mxGeometry>
                </mxCell>
                <mxCell id="pbQqVZXAzCHVXFzSQ3Tk-9" value="&lt;span style=&quot;margin: 0px ; padding: 0px ; text-align: left ; font-size: 11pt ; line-height: 18.3458px ; font-family: &amp;#34;calibri&amp;#34; , &amp;#34;calibri_embeddedfont&amp;#34; , &amp;#34;calibri_msfontservice&amp;#34; , sans-serif&quot; class=&quot;TextRun SCXW59476216 BCX9&quot; lang=&quot;EN-US&quot;&gt;&lt;span style=&quot;margin: 0px ; padding: 0px&quot; class=&quot;NormalTextRun SCXW59476216 BCX9&quot;&gt;Rock Paper Scissors&lt;br&gt;&lt;/span&gt;&lt;/span&gt;&lt;span style=&quot;margin: 0px ; padding: 0px ; text-align: left ; font-size: 11pt ; line-height: 18.3458px ; font-family: &amp;#34;calibri&amp;#34; , &amp;#34;calibri_embeddedfont&amp;#34; , &amp;#34;calibri_msfontservice&amp;#34; , sans-serif&quot; class=&quot;EOP SCXW59476216 BCX9&quot;&gt;-timer 5 sec&lt;br&gt;-Info button&lt;br&gt;-start game&lt;br&gt;-player option buttons&lt;br&gt;-computer option&lt;br&gt;-turn count&amp;nbsp;&amp;nbsp;&lt;/span&gt;" style="rounded=0;whiteSpace=wrap;html=1;" parent="1" vertex="1">
                    <mxGeometry x="40" y="280" width="120" height="240" as="geometry"/>
                </mxCell>
                <mxCell id="pbQqVZXAzCHVXFzSQ3Tk-26" style="edgeStyle=orthogonalEdgeStyle;rounded=0;orthogonalLoop=1;jettySize=auto;html=1;entryX=1;entryY=0.5;entryDx=0;entryDy=0;" parent="1" source="pbQqVZXAzCHVXFzSQ3Tk-19" target="pbQqVZXAzCHVXFzSQ3Tk-4" edge="1">
                    <mxGeometry relative="1" as="geometry">
                        <Array as="points">
                            <mxPoint x="830" y="650"/>
                            <mxPoint x="830" y="120"/>
                        </Array>
                    </mxGeometry>
                </mxCell>
                <mxCell id="pbQqVZXAzCHVXFzSQ3Tk-27" style="edgeStyle=orthogonalEdgeStyle;rounded=0;orthogonalLoop=1;jettySize=auto;html=1;entryX=0.5;entryY=1;entryDx=0;entryDy=0;" parent="1" source="pbQqVZXAzCHVXFzSQ3Tk-19" target="pbQqVZXAzCHVXFzSQ3Tk-9" edge="1">
                    <mxGeometry relative="1" as="geometry">
                        <Array as="points">
                            <mxPoint x="426" y="540"/>
                            <mxPoint x="100" y="540"/>
                        </Array>
                    </mxGeometry>
                </mxCell>
                <mxCell id="pbQqVZXAzCHVXFzSQ3Tk-28" style="edgeStyle=orthogonalEdgeStyle;rounded=0;orthogonalLoop=1;jettySize=auto;html=1;entryX=0.5;entryY=1;entryDx=0;entryDy=0;" parent="1" source="pbQqVZXAzCHVXFzSQ3Tk-19" target="pbQqVZXAzCHVXFzSQ3Tk-6" edge="1">
                    <mxGeometry relative="1" as="geometry">
                        <Array as="points">
                            <mxPoint x="426" y="540"/>
                            <mxPoint x="300" y="540"/>
                        </Array>
                    </mxGeometry>
                </mxCell>
                <mxCell id="pbQqVZXAzCHVXFzSQ3Tk-29" style="edgeStyle=orthogonalEdgeStyle;rounded=0;orthogonalLoop=1;jettySize=auto;html=1;entryX=0.5;entryY=1;entryDx=0;entryDy=0;" parent="1" source="pbQqVZXAzCHVXFzSQ3Tk-19" target="pbQqVZXAzCHVXFzSQ3Tk-7" edge="1">
                    <mxGeometry relative="1" as="geometry">
                        <Array as="points">
                            <mxPoint x="426" y="540"/>
                            <mxPoint x="540" y="540"/>
                        </Array>
                    </mxGeometry>
                </mxCell>
                <mxCell id="pbQqVZXAzCHVXFzSQ3Tk-30" style="edgeStyle=orthogonalEdgeStyle;rounded=0;orthogonalLoop=1;jettySize=auto;html=1;entryX=0.5;entryY=1;entryDx=0;entryDy=0;" parent="1" source="pbQqVZXAzCHVXFzSQ3Tk-19" target="pbQqVZXAzCHVXFzSQ3Tk-8" edge="1">
                    <mxGeometry relative="1" as="geometry">
                        <Array as="points">
                            <mxPoint x="426" y="540"/>
                            <mxPoint x="740" y="540"/>
                        </Array>
                    </mxGeometry>
                </mxCell>
                <mxCell id="pbQqVZXAzCHVXFzSQ3Tk-19" value="End game global functions&lt;br&gt;Display result&lt;br&gt;Display winner or loser memes&lt;br&gt;Give achievements&lt;br&gt;Play again or go to main buttons" style="rounded=0;whiteSpace=wrap;html=1;" parent="1" vertex="1">
                    <mxGeometry x="303" y="580" width="245" height="140" as="geometry"/>
                </mxCell>
            </root>
        </mxGraphModel>
    </diagram>
</mxfile>